<?xml version="1.0" encoding="UTF-8" standalone="no"?>
<svg
   xmlns:dc="http://purl.org/dc/elements/1.1/"
   xmlns:cc="http://creativecommons.org/ns#"
   xmlns:rdf="http://www.w3.org/1999/02/22-rdf-syntax-ns#"
   xmlns:svg="http://www.w3.org/2000/svg"
   xmlns="http://www.w3.org/2000/svg"
   viewBox="0 0 77.47701 35"
   height="35"
   width="77.477013"
   xml:space="preserve"
   id="svg2"
   version="1.1"><metadata
     id="metadata8"><rdf:RDF><cc:Work
         rdf:about=""><dc:format>image/svg+xml</dc:format><dc:type
           rdf:resource="http://purl.org/dc/dcmitype/StillImage" /><dc:title></dc:title></cc:Work></rdf:RDF></metadata><defs
     id="defs6"><clipPath
       id="clipPath20"
       clipPathUnits="userSpaceOnUse"><path
         id="path18"
         d="M 0,404.205 H 896.205 V 0 H 0 Z" /></clipPath></defs><g
     transform="matrix(0.08660365,0,0,-0.08660365,0,35.005628)"
     id="g10"><path
       id="path12"
       style="fill:#69be29;fill-opacity:1;fill-rule:nonzero;stroke:none"
       d="m 0,0.065 h 894.616 v 404.14 H 0 Z" /><g
       id="g14"><g
         clip-path="url(#clipPath20)"
         id="g16"><g
           transform="translate(154.8085,188.51)"
           id="g22"><path
             id="path24"
             style="fill:#ffffff;fill-opacity:1;fill-rule:nonzero;stroke:none"
             d="m 0,0 h -19.455 c -1.423,0 -2.578,1.154 -2.578,2.578 v 63.39 c 0,1.424 1.155,2.578 2.578,2.578 H 0 c 23.257,0 33.05,-16.68 33.509,-33.357 C 33.965,17.749 24.326,0 0,0 m -0.82,95.515 h -45.541 c -1.424,0 -2.578,-1.154 -2.578,-2.578 V -24.392 c 0,-1.423 1.154,-2.578 2.578,-2.578 H -0.82 c 42.869,0 61.767,31.323 61.241,62.293 -0.523,30.27 -19.246,60.192 -61.241,60.192" /></g><g
           transform="translate(248.0224,256.1111)"
           id="g26"><path
             id="path28"
             style="fill:#ffffff;fill-opacity:1;fill-rule:nonzero;stroke:none"
             d="m 0,0 h -30.052 c -1.424,0 -2.578,1.154 -2.578,2.578 v 23.117 c 0,1.424 1.154,2.578 2.578,2.578 h 95.631 c 1.423,0 2.578,-1.154 2.578,-2.578 V 2.578 C 68.157,1.154 67.002,0 65.579,0 H 35.526 c -1.424,0 -2.578,-1.154 -2.578,-2.579 v -89.054 c 0,-1.424 -1.155,-2.578 -2.578,-2.578 H 5.156 c -1.424,0 -2.578,1.154 -2.578,2.578 V -2.579 C 2.578,-1.154 1.424,0 0,0" /></g><g
           transform="translate(376.2816,186.1477)"
           id="g30"><path
             id="path32"
             style="fill:#36444c;fill-opacity:1;fill-rule:nonzero;stroke:none"
             d="m 0,0 c -21.37,0 -32.174,16.809 -32.174,34.815 0,17.768 11.045,35.056 32.174,35.056 19.687,0 32.171,-17.288 32.171,-35.056 C 32.171,16.809 21.367,0 0,0 m 0.144,97.854 c -36.907,0 -59.941,-27.736 -59.941,-61.451 0,-33.953 22.564,-61.448 60.177,-61.448 37.609,0 60.411,27.495 60.411,61.448 0,33.715 -23.741,61.451 -60.647,61.451" /></g><g
           transform="translate(536.5531,161.8997)"
           id="g34"><path
             id="path36"
             style="fill:#36444c;fill-opacity:1;fill-rule:nonzero;stroke:none"
             d="m 0,0 c -0.517,0 -0.936,0.419 -0.936,0.936 v 61.961 c 0,26.32 -20.709,43.537 -59.21,23.33 -0.313,-0.164 -0.519,-0.496 -0.519,-0.848 V 0.936 C -60.665,0.419 -61.084,0 -61.601,0 h -27.627 c -0.516,0 -0.935,0.419 -0.935,0.936 v 120.562 c 0,0.516 0.419,0.935 0.935,0.935 l 26.33,0.079 c 0.473,0 0.873,-0.354 0.928,-0.824 l 0.112,-15.751 c 0.09,-0.762 1.01,-1.067 1.569,-0.541 11.743,11.088 23.588,16.744 38.145,16.744 28.28,0 50.953,-21.213 50.953,-58.997 V 0.936 C 28.809,0.419 28.39,0 27.873,0 Z" /></g><g
           transform="translate(606.3666,240.0144)"
           id="g38"><path
             id="path40"
             style="fill:#36444c;fill-opacity:1;fill-rule:nonzero;stroke:none"
             d="m 0,0 c 5.458,12.238 17.305,18.355 31.445,18.355 15.201,0 26.472,-6.28 29.909,-18.845 0.579,-2.114 -1.086,-4.202 -3.279,-4.202 H 3.116 C 0.709,-4.692 -0.98,-2.199 0,0 m 139.966,-66.765 c 0,4.171 1.465,8.003 3.896,11.024 h -1.79 -109.371 c -18.631,0 -30.468,9.897 -34.012,22.592 -0.59,2.115 1.079,4.205 3.275,4.205 h 85.189 c 1.759,0 3.25,1.369 3.372,3.124 3.232,46.664 -21.28,70.108 -60.039,70.108 -38.417,0 -62.906,-25.933 -62.906,-61.944 0,-37.937 24.78,-60.618 65.595,-60.618 9.779,0 75.985,-0.716 111.667,-0.625 -3.013,3.163 -4.876,7.431 -4.876,12.134" /></g><g
           transform="translate(774.0726,172.9368)"
           id="g42"><path
             id="path44"
             style="fill:#ffffff;fill-opacity:1;fill-rule:nonzero;stroke:none"
             d="m 0,0 c 0,-5.8 -4.701,-10.5 -10.5,-10.5 -5.799,0 -10.5,4.7 -10.5,10.5 0,5.799 4.701,10.5 10.5,10.5 C -4.701,10.5 0,5.799 0,0" /></g><g
           transform="translate(328.5468,113.6233)"
           id="g46"><path
             id="path48"
             style="fill:#36444c;fill-opacity:1;fill-rule:nonzero;stroke:none"
             d="m 0,0 c 0,0.461 -0.195,0.893 -0.583,1.293 -0.388,0.4 -1.226,0.849 -2.512,1.347 -1.287,0.497 -2.136,0.825 -2.549,0.983 -0.413,0.157 -0.874,0.395 -1.383,0.71 -0.51,0.315 -0.947,0.655 -1.311,1.02 -0.364,0.364 -0.698,0.849 -1.001,1.456 -0.304,0.606 -0.455,1.359 -0.455,2.257 0,0.582 0.109,1.207 0.327,1.875 0.219,0.667 0.607,1.305 1.165,1.912 0.558,0.606 1.323,1.134 2.294,1.584 0.971,0.449 2.149,0.673 3.532,0.673 1.505,0 2.846,-0.236 4.023,-0.71 1.178,-0.473 2.106,-1.098 2.786,-1.875 L 1.457,9.612 c -0.462,0.51 -1.051,0.941 -1.767,1.293 -0.716,0.352 -1.474,0.528 -2.275,0.528 -0.874,0 -1.554,-0.201 -2.039,-0.601 -0.486,-0.4 -0.729,-0.904 -0.729,-1.511 0,-0.437 0.188,-0.868 0.565,-1.293 C -4.412,7.604 -3.344,7.069 -1.584,6.427 0.176,5.783 1.426,5.194 2.167,4.66 2.906,4.126 3.477,3.508 3.877,2.804 4.278,2.1 4.479,1.25 4.479,0.255 4.479,-0.861 4.156,-1.894 3.514,-2.84 2.87,-3.786 1.984,-4.533 0.855,-5.079 c -1.128,-0.546 -2.494,-0.819 -4.096,-0.819 -0.898,0 -1.875,0.109 -2.93,0.328 -1.057,0.217 -2.016,0.569 -2.877,1.055 -0.862,0.486 -1.547,0.984 -2.057,1.494 l 2.694,3.167 c 0.583,-0.631 1.353,-1.19 2.312,-1.675 0.959,-0.486 1.985,-0.728 3.077,-0.728 0.995,0 1.748,0.212 2.257,0.637 C -0.255,-1.195 0,-0.655 0,0" /></g><g
           transform="translate(352.4677,125.8938)"
           id="g50"><path
             id="path52"
             style="fill:#36444c;fill-opacity:1;fill-rule:nonzero;stroke:none"
             d="m 0,0 c 0.364,0.582 0.886,1.116 1.565,1.602 0.68,0.485 1.414,0.825 2.204,1.019 0.788,0.194 1.523,0.292 2.202,0.292 2.015,0 3.556,-0.564 4.624,-1.693 1.068,-1.129 1.602,-2.81 1.602,-5.043 V -17.805 H 7.719 v 13.181 c 0,1.237 -0.286,2.166 -0.856,2.785 C 6.292,-1.22 5.534,-0.91 4.587,-0.91 3.738,-0.91 2.955,-1.172 2.239,-1.693 1.523,-2.216 1.031,-2.853 0.765,-3.604 V -17.805 H -3.75 v 12.817 c 0,1.335 -0.28,2.348 -0.838,3.04 -0.558,0.692 -1.371,1.038 -2.439,1.038 -0.85,0 -1.615,-0.279 -2.294,-0.838 -0.68,-0.559 -1.141,-1.226 -1.384,-2.002 v -14.055 h -4.478 V 2.476 h 3.604 l 0.802,-2.002 h 0.145 c 0.51,0.703 1.238,1.286 2.185,1.747 0.947,0.461 1.99,0.692 3.131,0.692 2.573,0 4.296,-0.972 5.17,-2.913 z" /></g><g
           transform="translate(379.8114,113.1497)"
           id="g54"><path
             id="path56"
             style="fill:#36444c;fill-opacity:1;fill-rule:nonzero;stroke:none"
             d="m 0,0 v 3.496 c -2.063,0.121 -3.671,-0.073 -4.824,-0.583 -1.154,-0.51 -1.73,-1.31 -1.73,-2.403 0,-0.704 0.242,-1.286 0.728,-1.747 0.486,-0.462 1.141,-0.693 1.967,-0.693 0.801,0 1.547,0.183 2.239,0.547 C -0.928,-1.019 -0.388,-0.559 0,0 m -3.422,15.548 c 2.5,0 4.399,-0.517 5.698,-1.548 1.298,-1.032 1.948,-2.676 1.948,-4.934 V 0.547 c 0,-1.457 0.533,-2.185 1.602,-2.185 H 6.372 V -4.77 c -0.559,-0.339 -1.25,-0.509 -2.076,-0.509 -0.922,0 -1.687,0.207 -2.293,0.619 -0.607,0.412 -1.069,0.971 -1.384,1.675 H 0.474 c -1.287,-1.626 -3.12,-2.44 -5.498,-2.44 -0.923,0 -1.846,0.189 -2.768,0.565 -0.922,0.376 -1.681,1.025 -2.275,1.948 -0.595,0.922 -0.892,1.93 -0.892,3.021 0,2.234 0.977,3.909 2.931,5.025 1.953,1.116 4.63,1.614 8.028,1.493 v 1.82 c 0,1.239 -0.297,2.118 -0.892,2.64 -0.595,0.522 -1.438,0.783 -2.53,0.783 -0.51,0 -1.033,-0.085 -1.566,-0.255 C -5.522,11.445 -5.989,11.172 -6.39,10.796 -6.791,10.419 -7.1,10.001 -7.318,9.54 l -3.204,2.403 c 1.747,2.403 4.114,3.605 7.1,3.605" /></g><g
           transform="translate(401.4388,128.5881)"
           id="g58"><path
             id="path60"
             style="fill:#36444c;fill-opacity:1;fill-rule:nonzero;stroke:none"
             d="m 0,0 v -4.479 c -0.729,0.146 -1.493,0.219 -2.294,0.219 -0.923,0 -1.827,-0.177 -2.712,-0.528 -0.887,-0.353 -1.597,-0.844 -2.131,-1.475 v -14.236 h -4.442 v 20.28 h 3.459 l 0.947,-2.694 h 0.146 c 0.437,0.922 1.11,1.669 2.021,2.239 0.91,0.57 1.971,0.856 3.185,0.856 C -1.092,0.182 -0.486,0.121 0,0" /></g><g
           transform="translate(410.9413,107.9075)"
           id="g62"><path
             id="path64"
             style="fill:#36444c;fill-opacity:1;fill-rule:nonzero;stroke:none"
             d="M 0,0 C -1.797,0 -3.192,0.503 -4.187,1.511 -5.183,2.518 -5.68,4.102 -5.68,6.262 v 10.741 h -2.767 v 2.804 l 2.767,0.91 1.493,4.952 h 2.913 V 20.462 H 4.005 V 17.003 H -1.274 V 6.262 c 0,-0.85 0.218,-1.487 0.655,-1.911 0.437,-0.425 1.031,-0.637 1.784,-0.637 0.534,0 1.062,0.078 1.584,0.236 0.522,0.157 0.952,0.358 1.293,0.601 L 5.243,1.128 C 4.078,0.376 2.33,0 0,0" /></g><g
           transform="translate(418.1869,110.8928)"
           id="g66"><path
             id="path68"
             style="fill:#36444c;fill-opacity:1;fill-rule:nonzero;stroke:none"
             d="m 0,0 c 0,0.874 0.297,1.614 0.892,2.221 0.594,0.606 1.316,0.91 2.167,0.91 0.412,0 0.861,-0.104 1.347,-0.31 C 4.891,2.615 5.303,2.251 5.644,1.729 5.983,1.207 6.153,0.631 6.153,0 6.153,-0.825 5.85,-1.535 5.243,-2.13 4.636,-2.726 3.908,-3.022 3.059,-3.022 2.208,-3.022 1.486,-2.726 0.892,-2.13 0.297,-1.535 0,-0.825 0,0" /></g><g
           transform="translate(452.4105,125.1653)"
           id="g70"><path
             id="path72"
             style="fill:#36444c;fill-opacity:1;fill-rule:nonzero;stroke:none"
             d="m 0,0 c 0.293,0.631 0.76,1.202 1.402,1.711 0.643,0.51 1.36,0.874 2.149,1.093 0.789,0.218 1.535,0.328 2.238,0.328 1.967,0 3.479,-0.56 4.533,-1.675 1.057,-1.117 1.584,-2.744 1.584,-4.88 V -17.076 H 9.104 v 13.071 c 0,1.481 -0.346,2.621 -1.038,3.423 -0.693,0.801 -1.644,1.201 -2.859,1.201 -0.85,0 -1.619,-0.2 -2.312,-0.6 C 2.203,-0.382 1.687,-0.837 1.348,-1.347 1.008,-1.856 0.777,-2.307 0.656,-2.694 v -14.382 h -2.84 v 12.852 c 0,0.729 -0.109,1.481 -0.328,2.258 -0.218,0.777 -0.642,1.402 -1.273,1.875 -0.633,0.474 -1.408,0.71 -2.331,0.71 -0.559,0 -1.159,-0.128 -1.802,-0.383 -0.644,-0.254 -1.214,-0.679 -1.712,-1.273 -0.497,-0.596 -0.819,-1.22 -0.965,-1.876 v -14.163 h -2.84 V 2.73 h 2.185 l 0.583,-2.111 h 0.146 c 0.533,0.825 1.268,1.45 2.202,1.875 0.934,0.425 1.912,0.638 2.93,0.638 0.68,0 1.379,-0.098 2.094,-0.292 C -2.578,2.646 -1.947,2.294 -1.4,1.784 -0.855,1.274 -0.436,0.68 -0.145,0 Z" /></g><g
           transform="translate(472.1088,118.175)"
           id="g74"><path
             id="path76"
             style="fill:#36444c;fill-opacity:1;fill-rule:nonzero;stroke:none"
             d="m 0,0 c 0,-2.671 0.431,-4.661 1.293,-5.972 0.861,-1.31 2.227,-1.965 4.096,-1.965 1.869,0 3.204,0.619 4.005,1.856 0.801,1.238 1.202,3.18 1.202,5.826 0,2.67 -0.432,4.654 -1.293,5.953 C 8.441,6.996 7.063,7.646 5.17,7.646 3.325,7.646 2.003,7.026 1.201,5.789 0.4,4.551 0,2.621 0,0 m 5.17,-10.414 c -5.389,0 -8.083,3.398 -8.083,10.195 0,2.379 0.328,4.315 0.983,5.808 0.656,1.492 1.584,2.615 2.785,3.367 1.203,0.753 2.713,1.129 4.534,1.129 1.092,0 2.141,-0.158 3.149,-0.473 1.007,-0.316 1.881,-0.868 2.622,-1.657 0.739,-0.789 1.317,-1.833 1.73,-3.131 0.412,-1.299 0.618,-2.919 0.618,-4.861 0,-1.554 -0.158,-2.961 -0.473,-4.224 -0.316,-1.261 -0.807,-2.354 -1.474,-3.276 -0.668,-0.923 -1.537,-1.633 -2.604,-2.13 -1.068,-0.497 -2.33,-0.747 -3.787,-0.747" /></g><g
           transform="translate(496.6127,110.2004)"
           id="g78"><path
             id="path80"
             style="fill:#36444c;fill-opacity:1;fill-rule:nonzero;stroke:none"
             d="m 0,0 c 1.967,0 3.532,0.686 4.697,2.058 1.165,1.371 1.748,3.355 1.748,5.953 0,1.698 -0.224,3.089 -0.674,4.169 -0.449,1.08 -1.074,1.886 -1.875,2.421 -0.8,0.534 -1.772,0.801 -2.913,0.801 -0.777,0 -1.553,-0.176 -2.33,-0.528 -0.777,-0.353 -1.383,-0.832 -1.82,-1.438 V 0.547 C -2.318,0.183 -1.262,0 0,0 m -6.007,-1.42 v 26.943 h 2.803 v -9.174 h 0.146 c 0.607,0.485 1.353,0.861 2.24,1.129 0.885,0.266 1.741,0.4 2.566,0.4 1.043,0 2.026,-0.183 2.949,-0.546 0.922,-0.364 1.724,-0.929 2.404,-1.693 0.678,-0.765 1.212,-1.754 1.601,-2.968 0.389,-1.214 0.583,-2.634 0.583,-4.26 0,-1.601 -0.2,-3.076 -0.6,-4.424 C 8.283,2.641 7.677,1.487 6.863,0.528 6.05,-0.431 5.025,-1.171 3.787,-1.692 2.549,-2.214 1.141,-2.476 -0.437,-2.476 c -2.354,0 -4.211,0.353 -5.57,1.056" /></g><path
           id="path82"
           style="fill:#36444c;fill-opacity:1;fill-rule:nonzero;stroke:none"
           d="m 511.832,127.896 h 2.84 v -19.807 h -2.84 z m -0.8,5.79 c 0,0.582 0.2,1.073 0.6,1.474 0.401,0.401 0.88,0.601 1.439,0.601 0.582,0 1.079,-0.2 1.492,-0.601 0.413,-0.401 0.619,-0.892 0.619,-1.474 0,-0.583 -0.206,-1.069 -0.619,-1.457 -0.413,-0.389 -0.91,-0.582 -1.492,-0.582 -0.559,0 -1.038,0.2 -1.439,0.6 -0.4,0.401 -0.6,0.88 -0.6,1.439" /><g
           transform="translate(527.0873,107.9075)"
           id="g84"><path
             id="path86"
             style="fill:#36444c;fill-opacity:1;fill-rule:nonzero;stroke:none"
             d="m 0,0 c -3.374,0 -5.062,1.82 -5.062,5.461 v 12.234 h -2.949 v 1.821 l 2.949,0.546 0.875,5.133 h 1.929 V 19.988 H 3.204 V 17.695 H -2.258 V 5.606 c 0,-1.068 0.255,-1.856 0.765,-2.366 0.51,-0.51 1.214,-0.764 2.112,-0.764 1.286,0 2.294,0.23 3.022,0.691 L 4.441,0.91 C 3.373,0.303 1.894,0 0,0" /></g><g
           transform="translate(542.3793,125.7844)"
           id="g88"><path
             id="path90"
             style="fill:#36444c;fill-opacity:1;fill-rule:nonzero;stroke:none"
             d="m 0,0 c -1.044,0 -1.948,-0.249 -2.713,-0.746 -0.765,-0.498 -1.371,-1.215 -1.82,-2.149 -0.449,-0.934 -0.71,-2.106 -0.783,-3.513 h 9.94 L 4.66,-5.279 C 4.66,-1.76 3.106,0 0,0 m 5.498,-13.981 1.274,-2.185 C 6.068,-16.7 5.182,-17.131 4.114,-17.459 3.046,-17.786 1.856,-17.95 0.546,-17.95 c -2.889,0 -5.061,0.812 -6.518,2.439 -1.456,1.626 -2.184,4.236 -2.184,7.828 0,1.7 0.224,3.204 0.674,4.515 0.449,1.311 1.061,2.373 1.838,3.187 0.777,0.812 1.675,1.419 2.695,1.82 1.019,0.4 2.087,0.6 3.204,0.6 2.306,0 4.084,-0.698 5.334,-2.093 1.25,-1.396 1.875,-3.284 1.875,-5.661 0,-0.997 -0.072,-2.137 -0.219,-3.423 H -5.353 c 0.122,-2.379 0.693,-4.097 1.712,-5.153 1.019,-1.055 2.537,-1.584 4.551,-1.584 0.68,0 1.462,0.121 2.349,0.365 0.886,0.242 1.632,0.619 2.239,1.129" /></g><g
           transform="translate(553.9935,117.7014)"
           id="g92"><path
             id="path94"
             style="fill:#36444c;fill-opacity:1;fill-rule:nonzero;stroke:none"
             d="m 0,0 c 0,1.748 0.206,3.295 0.619,4.643 0.413,1.346 0.995,2.451 1.748,3.312 0.752,0.861 1.644,1.505 2.676,1.931 1.031,0.424 2.154,0.636 3.368,0.636 1.068,0 2.117,-0.169 3.15,-0.509 1.031,-0.34 1.862,-0.863 2.494,-1.566 L 12.161,6.372 C 11.117,7.464 9.818,8.01 8.266,8.01 6.591,8.01 5.279,7.396 4.333,6.172 3.387,4.945 2.913,3.01 2.913,0.364 c 0,-5.195 1.784,-7.792 5.353,-7.792 1.65,0 2.936,0.522 3.859,1.566 l 1.747,-1.966 C 13.217,-8.581 12.361,-9.121 11.306,-9.448 10.25,-9.776 9.151,-9.94 8.011,-9.94 6.141,-9.94 4.624,-9.539 3.459,-8.738 2.294,-7.937 1.426,-6.821 0.856,-5.389 0.285,-3.957 0,-2.161 0,0" /></g><g
           transform="translate(580.9369,128.2239)"
           id="g96"><path
             id="path98"
             style="fill:#36444c;fill-opacity:1;fill-rule:nonzero;stroke:none"
             d="m 0,0 c 1.918,0 3.441,-0.577 4.57,-1.729 1.128,-1.154 1.693,-2.725 1.693,-4.715 v -13.691 h -2.84 v 13.253 c 0,0.923 -0.189,1.736 -0.565,2.44 -0.376,0.704 -0.874,1.202 -1.492,1.493 -0.619,0.291 -1.269,0.436 -1.948,0.436 -0.607,0 -1.274,-0.121 -2.003,-0.363 -0.728,-0.243 -1.39,-0.662 -1.984,-1.257 -0.595,-0.595 -1.026,-1.22 -1.292,-1.875 v -14.127 h -2.84 V 7.5 h 2.84 V -2.513 h 0.145 c 0.679,0.826 1.529,1.451 2.549,1.876 C -2.147,-0.213 -1.092,0 0,0" /></g><g
           transform="translate(591.932,110.2737)"
           id="g100"><path
             id="path102"
             style="fill:#36444c;fill-opacity:1;fill-rule:nonzero;stroke:none"
             d="M 0,0 C 0,0.631 0.212,1.171 0.638,1.62 1.062,2.069 1.578,2.294 2.185,2.294 2.84,2.294 3.387,2.075 3.823,1.639 4.26,1.201 4.479,0.655 4.479,0 c 0,-0.607 -0.225,-1.123 -0.674,-1.548 -0.45,-0.425 -0.99,-0.637 -1.62,-0.637 -0.582,0 -1.092,0.219 -1.53,0.656 C 0.219,-1.092 0,-0.583 0,0" /></g><g
           transform="translate(619.7484,113.6233)"
           id="g104"><path
             id="path106"
             style="fill:#36444c;fill-opacity:1;fill-rule:nonzero;stroke:none"
             d="m 0,0 c 0,0.461 -0.194,0.893 -0.582,1.293 -0.389,0.4 -1.227,0.849 -2.513,1.347 -1.286,0.497 -2.135,0.825 -2.549,0.983 -0.413,0.157 -0.873,0.395 -1.382,0.71 -0.51,0.315 -0.948,0.655 -1.312,1.02 -0.363,0.364 -0.697,0.849 -1.001,1.456 -0.304,0.606 -0.455,1.359 -0.455,2.257 0,0.582 0.109,1.207 0.328,1.875 0.218,0.667 0.607,1.305 1.165,1.912 0.558,0.606 1.322,1.134 2.294,1.584 0.97,0.449 2.148,0.673 3.531,0.673 1.505,0 2.846,-0.236 4.024,-0.71 1.177,-0.473 2.105,-1.098 2.785,-1.875 L 1.457,9.612 c -0.462,0.51 -1.051,0.941 -1.766,1.293 -0.716,0.352 -1.474,0.528 -2.276,0.528 -0.874,0 -1.554,-0.201 -2.039,-0.601 -0.485,-0.4 -0.728,-0.904 -0.728,-1.511 0,-0.437 0.188,-0.868 0.565,-1.293 C -4.411,7.604 -3.344,7.069 -1.583,6.427 0.176,5.783 1.426,5.194 2.167,4.66 2.907,4.126 3.478,3.508 3.878,2.804 4.278,2.1 4.479,1.25 4.479,0.255 4.479,-0.861 4.157,-1.894 3.514,-2.84 2.87,-3.786 1.984,-4.533 0.856,-5.079 -0.272,-5.625 -1.638,-5.898 -3.24,-5.898 c -0.899,0 -1.875,0.109 -2.931,0.328 -1.056,0.217 -2.016,0.569 -2.877,1.055 -0.861,0.486 -1.547,0.984 -2.056,1.494 l 2.694,3.167 c 0.582,-0.631 1.352,-1.19 2.311,-1.675 0.959,-0.486 1.985,-0.728 3.078,-0.728 0.995,0 1.747,0.212 2.256,0.637 C -0.255,-1.195 0,-0.655 0,0" /></g><g
           transform="translate(632.0199,118.3567)"
           id="g108"><path
             id="path110"
             style="fill:#36444c;fill-opacity:1;fill-rule:nonzero;stroke:none"
             d="m 0,0 c 0,-2.354 0.346,-4.114 1.037,-5.279 0.692,-1.165 1.815,-1.748 3.368,-1.748 1.553,0 2.652,0.547 3.295,1.638 0.643,1.093 0.965,2.804 0.965,5.134 0,2.379 -0.352,4.145 -1.056,5.298 C 6.905,6.195 5.765,6.772 4.187,6.772 2.73,6.772 1.668,6.22 1.001,5.115 0.333,4.011 0,2.306 0,0 m 4.223,-10.632 c -1.991,0 -3.629,0.376 -4.915,1.129 -1.287,0.752 -2.264,1.875 -2.931,3.368 -0.668,1.492 -1.002,3.465 -1.002,5.916 0,2.428 0.358,4.412 1.074,5.953 0.716,1.541 1.73,2.701 3.041,3.478 1.311,0.776 2.949,1.165 4.915,1.165 1.214,0 2.372,-0.164 3.478,-0.491 1.103,-0.328 2.056,-0.893 2.857,-1.694 0.802,-0.8 1.42,-1.863 1.858,-3.185 0.436,-1.323 0.655,-3.004 0.655,-5.043 0,-1.578 -0.17,-3.017 -0.51,-4.315 -0.34,-1.298 -0.874,-2.416 -1.602,-3.349 -0.728,-0.936 -1.675,-1.657 -2.84,-2.167 -1.165,-0.51 -2.525,-0.765 -4.078,-0.765" /></g><g
           transform="translate(649.642,135.6877)"
           id="g112"><path
             id="path114"
             style="fill:#36444c;fill-opacity:1;fill-rule:nonzero;stroke:none"
             d="m 0,0 h 4.478 v -21.81 c 0,-1.456 0.619,-2.184 1.857,-2.184 0.436,0 0.801,0.06 1.092,0.182 v -3.605 c -0.752,-0.314 -1.615,-0.473 -2.585,-0.473 -1.529,0 -2.719,0.431 -3.568,1.292 C 0.424,-25.736 0,-24.528 0,-22.975 Z" /></g><g
           transform="translate(660.5277,114.679)"
           id="g116"><path
             id="path118"
             style="fill:#36444c;fill-opacity:1;fill-rule:nonzero;stroke:none"
             d="M 0,0 V 13.69 H 4.515 V 0.547 c 0,-1.312 0.297,-2.301 0.892,-2.968 0.595,-0.668 1.45,-1.001 2.567,-1.001 0.583,0 1.183,0.121 1.802,0.364 0.62,0.243 1.135,0.643 1.547,1.202 0.413,0.557 0.668,1.152 0.765,1.784 V 13.69 h 4.478 V -6.59 h -3.713 l -0.692,1.966 H 12.016 C 11.481,-5.304 10.753,-5.868 9.831,-6.316 8.908,-6.766 7.804,-6.99 6.518,-6.99 2.196,-6.99 0.024,-4.66 0,0" /></g><g
           transform="translate(688.6722,107.9075)"
           id="g120"><path
             id="path122"
             style="fill:#36444c;fill-opacity:1;fill-rule:nonzero;stroke:none"
             d="M 0,0 C -1.796,0 -3.191,0.503 -4.187,1.511 -5.183,2.518 -5.68,4.102 -5.68,6.262 v 10.741 h -2.767 v 2.804 l 2.767,0.91 1.493,4.952 h 2.913 v -5.207 h 5.28 v -3.459 h -5.28 V 6.262 c 0,-0.85 0.218,-1.487 0.655,-1.911 0.437,-0.425 1.032,-0.637 1.784,-0.637 0.534,0 1.062,0.078 1.584,0.236 0.522,0.157 0.952,0.358 1.293,0.601 L 5.243,1.128 C 4.078,0.376 2.33,0 0,0" /></g><path
           id="path124"
           style="fill:#36444c;fill-opacity:1;fill-rule:nonzero;stroke:none"
           d="m 697.264,128.369 h 4.479 v -20.28 h -4.479 z m -0.582,5.498 c 0,0.801 0.261,1.475 0.782,2.021 0.523,0.547 1.159,0.819 1.912,0.819 0.801,0 1.468,-0.272 2.002,-0.819 0.534,-0.546 0.802,-1.22 0.802,-2.021 0,-0.752 -0.268,-1.383 -0.802,-1.893 -0.534,-0.51 -1.201,-0.765 -2.002,-0.765 -0.728,0 -1.359,0.261 -1.893,0.783 -0.534,0.522 -0.801,1.147 -0.801,1.875" /><g
           transform="translate(711.0277,118.3567)"
           id="g126"><path
             id="path128"
             style="fill:#36444c;fill-opacity:1;fill-rule:nonzero;stroke:none"
             d="m 0,0 c 0,-2.354 0.346,-4.114 1.037,-5.279 0.692,-1.165 1.815,-1.748 3.368,-1.748 1.553,0 2.652,0.547 3.295,1.638 0.643,1.093 0.965,2.804 0.965,5.134 0,2.379 -0.352,4.145 -1.056,5.298 C 6.905,6.195 5.765,6.772 4.187,6.772 2.73,6.772 1.668,6.22 1.001,5.115 0.333,4.011 0,2.306 0,0 m 4.223,-10.632 c -1.991,0 -3.629,0.376 -4.915,1.129 -1.287,0.752 -2.264,1.875 -2.931,3.368 -0.668,1.492 -1.002,3.465 -1.002,5.916 0,2.428 0.358,4.412 1.074,5.953 0.716,1.541 1.73,2.701 3.041,3.478 1.311,0.776 2.949,1.165 4.915,1.165 1.214,0 2.372,-0.164 3.478,-0.491 1.103,-0.328 2.056,-0.893 2.857,-1.694 0.802,-0.8 1.42,-1.863 1.858,-3.185 0.436,-1.323 0.655,-3.004 0.655,-5.043 0,-1.578 -0.17,-3.017 -0.51,-4.315 -0.34,-1.298 -0.874,-2.416 -1.602,-3.349 -0.728,-0.936 -1.675,-1.657 -2.84,-2.167 -1.165,-0.51 -2.525,-0.765 -4.078,-0.765" /></g><g
           transform="translate(745.0345,122.1067)"
           id="g130"><path
             id="path132"
             style="fill:#36444c;fill-opacity:1;fill-rule:nonzero;stroke:none"
             d="m 0,0 v -14.018 h -4.515 v 13.036 c 0,1.212 -0.291,2.16 -0.874,2.839 -0.582,0.679 -1.408,1.02 -2.475,1.02 -0.923,0 -1.754,-0.268 -2.494,-0.802 -0.741,-0.534 -1.281,-1.214 -1.621,-2.038 v -14.055 h -4.478 V 6.263 h 3.459 l 0.91,-2.002 h 0.146 c 0.534,0.655 1.31,1.231 2.33,1.729 1.019,0.497 2.099,0.746 3.241,0.746 2.039,0 3.604,-0.564 4.696,-1.693 C -0.582,3.914 -0.024,2.233 0,0" /></g><g
           transform="translate(759.3431,113.6233)"
           id="g134"><path
             id="path136"
             style="fill:#36444c;fill-opacity:1;fill-rule:nonzero;stroke:none"
             d="m 0,0 c 0,0.461 -0.194,0.893 -0.582,1.293 -0.389,0.4 -1.227,0.849 -2.513,1.347 -1.286,0.497 -2.135,0.825 -2.549,0.983 -0.413,0.157 -0.873,0.395 -1.382,0.71 -0.51,0.315 -0.948,0.655 -1.312,1.02 -0.363,0.364 -0.697,0.849 -1.001,1.456 -0.304,0.606 -0.455,1.359 -0.455,2.257 0,0.582 0.109,1.207 0.328,1.875 0.218,0.667 0.607,1.305 1.165,1.912 0.558,0.606 1.322,1.134 2.294,1.584 0.97,0.449 2.148,0.673 3.531,0.673 1.505,0 2.846,-0.236 4.024,-0.71 1.177,-0.473 2.105,-1.098 2.785,-1.875 L 1.457,9.612 c -0.462,0.51 -1.051,0.941 -1.766,1.293 -0.716,0.352 -1.474,0.528 -2.276,0.528 -0.874,0 -1.554,-0.201 -2.039,-0.601 -0.485,-0.4 -0.728,-0.904 -0.728,-1.511 0,-0.437 0.188,-0.868 0.565,-1.293 C -4.411,7.604 -3.344,7.069 -1.583,6.427 0.176,5.783 1.426,5.194 2.167,4.66 2.907,4.126 3.478,3.508 3.878,2.804 4.278,2.1 4.479,1.25 4.479,0.255 4.479,-0.861 4.157,-1.894 3.514,-2.84 2.87,-3.786 1.984,-4.533 0.856,-5.079 -0.272,-5.625 -1.638,-5.898 -3.24,-5.898 c -0.899,0 -1.875,0.109 -2.931,0.328 -1.056,0.217 -2.016,0.569 -2.877,1.055 -0.861,0.486 -1.547,0.984 -2.056,1.494 l 2.694,3.167 c 0.582,-0.631 1.352,-1.19 2.311,-1.675 0.959,-0.486 1.985,-0.728 3.078,-0.728 0.995,0 1.747,0.212 2.256,0.637 C -0.255,-1.195 0,-0.655 0,0" /></g><g
           transform="translate(767.1713,110.8928)"
           id="g138"><path
             id="path140"
             style="fill:#36444c;fill-opacity:1;fill-rule:nonzero;stroke:none"
             d="m 0,0 c 0,0.874 0.297,1.614 0.892,2.221 0.594,0.606 1.316,0.91 2.167,0.91 0.412,0 0.861,-0.104 1.346,-0.31 C 4.891,2.615 5.304,2.251 5.644,1.729 5.983,1.207 6.153,0.631 6.153,0 6.153,-0.825 5.85,-1.535 5.243,-2.13 4.636,-2.726 3.908,-3.022 3.059,-3.022 2.208,-3.022 1.486,-2.726 0.892,-2.13 0.297,-1.535 0,-0.825 0,0" /></g></g></g></g></svg>