<?xml version="1.0" encoding="UTF-8" standalone="no"?>
<svg
   xmlns:dc="http://purl.org/dc/elements/1.1/"
   xmlns:cc="http://creativecommons.org/ns#"
   xmlns:rdf="http://www.w3.org/1999/02/22-rdf-syntax-ns#"
   xmlns:svg="http://www.w3.org/2000/svg"
   xmlns="http://www.w3.org/2000/svg"
   xmlns:sodipodi="http://sodipodi.sourceforge.net/DTD/sodipodi-0.dtd"
   xmlns:inkscape="http://www.inkscape.org/namespaces/inkscape"
   width="65"
   height="60"
   viewBox="0 0 210 194"
   class="footer-logo"
   version="1.1"
   id="svg16"
   sodipodi:docname="footer_logo.svg"
   inkscape:version="0.92.4 (5da689c313, 2019-01-14)">
  <metadata
     id="metadata22">
    <rdf:RDF>
      <cc:Work
         rdf:about="">
        <dc:format>image/svg+xml</dc:format>
        <dc:type
           rdf:resource="http://purl.org/dc/dcmitype/StillImage" />
      </cc:Work>
    </rdf:RDF>
  </metadata>
  <defs
     id="defs20" />
  <sodipodi:namedview
     pagecolor="#ffffff"
     bordercolor="#666666"
     borderopacity="1"
     objecttolerance="10"
     gridtolerance="10"
     guidetolerance="10"
     inkscape:pageopacity="0"
     inkscape:pageshadow="2"
     inkscape:window-width="1920"
     inkscape:window-height="1020"
     id="namedview18"
     showgrid="false"
     inkscape:zoom="1.9666667"
     inkscape:cx="-124.57178"
     inkscape:cy="15.51295"
     inkscape:window-x="0"
     inkscape:window-y="31"
     inkscape:window-maximized="1"
     inkscape:current-layer="svg16" />
  <g
     id="g75"
     transform="matrix(1.0540265,0,0,1.0540265,-99.711728,-30.112189)">
    <path
       style="fill:#69be29;stroke-width:0.72012305"
       inkscape:connector-curvature="0"
       id="path2-8"
       d="M 130.49103,95.872018 H 97.695185 c -1.025455,0 -1.856477,0.831022 -1.856477,1.856477 V 182.2191 c 0,1.02545 0.831022,1.85647 1.856477,1.85647 h 32.795845 c 30.87096,0 44.47912,-22.55569 44.10106,-44.8579 -0.37663,-21.79813 -13.85949,-43.345652 -44.10106,-43.345652 z m 0.5905,68.782562 h -14.00999 c -1.02546,0 -1.85648,-0.83103 -1.85648,-1.85648 v -45.6486 c 0,-1.02546 0.83102,-1.85648 1.85648,-1.85648 h 14.00999 c 16.7479,0 23.80007,12.01165 24.13061,24.02114 0.32837,12.55895 -6.61361,25.34042 -24.13061,25.34042 z" />
    <path
       style="fill:#69be29;stroke-width:0.72012305"
       inkscape:connector-curvature="0"
       id="path4-7"
       d="m 198.20636,115.97354 h -21.64113 c -1.02546,0 -1.85648,-0.83103 -1.85648,-1.85648 V 97.46997 c 0,-1.025455 0.83102,-1.856476 1.85648,-1.856476 h 68.86608 c 1.02546,0 1.85648,0.831021 1.85648,1.856476 v 16.64709 c 0,1.02545 -0.83102,1.85648 -1.85648,1.85648 h -21.64113 c -1.02546,0 -1.85648,0.83102 -1.85648,1.85647 v 64.13056 c 0,1.02546 -0.83102,1.85648 -1.85648,1.85648 h -18.15718 c -1.02546,0 -1.85648,-0.83102 -1.85648,-1.85648 v -64.13056 c 0,-1.02545 -0.83174,-1.85647 -1.8572,-1.85647 z" />
    <g
       id="text105"
       style="font-style:normal;font-variant:normal;font-weight:normal;font-stretch:normal;font-size:40.7923584px;line-height:25.495224px;font-family:'Kohinoor Devanagari';-inkscape-font-specification:'Kohinoor Devanagari, Normal';font-variant-ligatures:normal;font-variant-caps:normal;font-variant-numeric:normal;font-feature-settings:normal;text-align:start;letter-spacing:0px;word-spacing:0px;writing-mode:lr-tb;text-anchor:start;fill:#3f494f;fill-opacity:1;stroke:none;stroke-width:1.01980889px;stroke-linecap:butt;stroke-linejoin:miter;stroke-opacity:1"
       aria-label="1"
       transform="matrix(3.2333333,0,0,3.2333333,89.655368,42.745761)">
      <path
         id="path47"
         style="stroke-width:1.01980889px"
         d="m 59.701861,16.28975 -7.79134,5.139837 1.876448,2.569919 3.141012,-2.161995 2.977842,-2.24358 h 0.16317 l -0.122377,7.179455 v 16.112982 h 3.141011 V 16.28975 Z"
         inkscape:connector-curvature="0" />
    </g>
  </g>
</svg>
