<svg xmlns="http://www.w3.org/2000/svg" viewBox="0 0 262 80" enable-background="new 0 0 262 80"><g fill="#fff"><path d="m184.15 19.02h-5.624l.026 41.922h22.78v-5.185h-17.16l-.026-36.737"/><path d="m-754.32-89.69c-1.419 1.47-3.767 2.941-6.965 2.941-4.282 0-6.01-2.115-6.01-4.876 0-4.153 2.889-6.14 9.03-6.14 1.161 0 3.02.129 3.973.31v7.765h-.026m-5.831-25.411c-4.54 0-8.72 1.599-11.97 4.308l1.986 3.457c2.296-1.341 5.108-2.683 9.158-2.683 4.618 0 6.656 2.373 6.656 6.346v2.038c-.903-.181-2.76-.31-3.896-.31-9.855 0-14.86 3.457-14.86 10.68 0 6.475 3.973 9.726 9.984 9.726 4.05 0 7.946-1.857 9.287-4.876l1.032 4.102h3.973v-21.464c-.024-6.783-2.965-11.324-11.35-11.324" transform="translate(977.33 143.28)"/><path d="m-853.09-86.41c-2.115 0-3.973-.258-5.366-.903v-17.362-2.01c1.909-1.599 4.282-2.76 7.301-2.76 5.443 0 7.533 3.844 7.533 10.06 0 8.822-3.38 12.976-9.468 12.976m2.374-28.533c-5.03 0-7.739 3.431-7.739 3.431v-5.418l-.026-7.172h-2.528-2.967l.026 40.89c2.76 1.161 6.527 1.78 10.629 1.78 10.5 0 15.556-6.707 15.556-18.291-.027-9.157-4.696-15.22-12.951-15.22" transform="translate(1099.77 143.13)"/><path d="m-461.12-120.06c4.979 0 8.204 1.651 10.293 3.328l2.425-4.205c-3.276-2.889-7.714-4.437-12.46-4.437-11.97 0-20.355 7.301-20.355 22.03 0 15.427 9.06 21.438 19.4 21.438 5.185 0 9.597-1.213 12.486-2.425l-.129-16.485v-1.935-3.251h-15.35v5.185h9.803l.129 12.512c-1.29.645-3.509 1.161-6.527 1.161-8.307 0-13.879-5.237-13.879-16.253-.025-11.221 5.728-16.664 14.164-16.664" transform="translate(584.04 143.63)"/><path d="m-631.04-123.56h-5.495l.026 7.04v2.889 1.677 2.941 16.769.052c0 6.785 2.941 11.325 11.325 11.325 1.161 0 2.296-.103 3.38-.31v-4.927c-.8.129-1.651.181-2.554.181-4.618 0-6.656-2.373-6.656-6.346v-16.769h9.21v-4.592h-9.21l-.026-9.933" transform="translate(793.57 142.58)"/><path d="m143.05 60.946h5.495v-31.989h-5.495v31.989"/><path d="m143.05 24.545h5.495v-5.495h-5.495v5.495"/></g><path d="m86.15 44.968l-4.866-14.951-9.627-29.655c-.494-1.516-2.645-1.516-3.156 0l-9.626 29.638h-31.983l-9.626-29.638c-.494-1.516-2.645-1.516-3.156 0l-9.609 29.638-4.866 14.969c-.441 1.358.035 2.856 1.199 3.702l42.05 30.554 42.05-30.554c1.163-.846 1.656-2.345 1.216-3.703" fill="#fc6d26" transform="translate(.532.775)"/><path d="m-111.77 78.82l15.991-49.21h-31.982l15.991 49.21" fill="#e24329" transform="translate(155.2 1.16)"/><path d="m14.887 78.82l-15.991-49.21h-22.391l38.38 49.21" fill="#fc6d26" transform="translate(28.531 1.161)"/><path d="m4.94 30.533l-4.866 14.951c-.441 1.358.035 2.856 1.199 3.702l42.05 30.554-38.38-49.21" fill="#fca326" transform="translate(.089.256)"/><path d="m-24.388-249.47h22.409l-9.644-29.637c-.494-1.516-2.645-1.516-3.156 0l-9.609 29.637" fill="#e24329" transform="translate(29.422 280.26)"/><path d="m-203.77 78.82l15.991-49.21h22.409l-38.4 49.21" fill="#fc6d26" transform="translate(247.2 1.161)"/><path d="m-164.49 30.533l4.866 14.951c.441 1.358-.035 2.856-1.199 3.702l-42.05 30.537 38.38-49.19" fill="#fca326" transform="translate(246.31.256)"/><path d="m-255.15-249.47h-22.409l9.626-29.637c.494-1.516 2.645-1.516 3.156 0l9.627 29.637" fill="#e24329" transform="translate(336.97 280.26)"/></svg>