<?xml version="1.0" encoding="UTF-8"?>
<svg width="56px" height="52px" viewBox="0 0 56 52" version="1.1" xmlns="http://www.w3.org/2000/svg" xmlns:xlink="http://www.w3.org/1999/xlink">
    <defs></defs>
    <g id="Desktop" stroke="none" stroke-width="1" fill="none" fill-rule="evenodd">
        <g id="blog-newsletter-cta-graphic-v2" transform="translate(-1070.000000, -383.000000)" fill="#FFFFFF">
            <g id="gitlab-newsletter-cta-b" transform="translate(948.000000, 363.000000)">
                <g id="Page-1" transform="translate(122.000000, 20.000000)">
                    <path d="M53.1397841,30.8022957 L34.558125,44.3561117 L51.1622841,22.9844307 L53.4156477,29.9385534 C53.5192159,30.2590074 53.4081705,30.6062589 53.1397841,30.8022957 Z M2.86117045,30.8027742 C2.59198864,30.6062589 2.48094318,30.2590074 2.58419318,29.9395104 L4.83819318,22.9833141 L21.4412386,44.3634491 L2.86117045,30.8027742 Z M11.2584659,3.11293374 L16.410625,19.0155227 L6.12523864,19.0155227 L11.2584659,3.11293374 Z M36.0973295,21.5676699 L28.0054886,46.5780748 L19.9136477,21.5676699 L36.0973295,21.5676699 Z M44.7420114,3.11277423 L49.8844659,19.0155227 L39.5995568,19.0155227 L44.7420114,3.11277423 Z M31.4494886,44.2040994 L33.126625,39.0203693 L38.7700568,21.578038 L49.0266477,21.578038 L32.9091477,42.3254 L31.4494886,44.2040994 Z M17.2337614,21.578038 L24.5527386,44.1996331 L6.98544318,21.578038 L17.2337614,21.578038 Z M55.8366932,29.1508969 L52.8941477,20.069719 C52.8793523,19.9864552 52.8535795,19.904946 52.8220795,19.8248724 L46.9193295,1.57207485 C46.5984432,0.615657669 45.7433295,-4.78527557e-05 44.7385114,-4.78527557e-05 L44.725625,-4.78527557e-05 C43.7206477,0.00521595093 42.8707841,0.62730184 42.5600795,1.58547362 L36.9236477,19.0155227 L19.0866932,19.0155227 L13.4396023,1.58483558 C13.1295341,0.62746135 12.2796705,0.00537546013 11.2746932,-4.78527557e-05 C10.2687614,-0.00563067484 9.40314773,0.611669939 9.07589773,1.58611166 L3.17648864,19.8628356 C3.17092045,19.8781485 3.16344318,19.8923448 3.15851136,19.9076577 L0.163147727,29.151854 C-0.280556818,30.5249092 0.201329545,32.0172773 1.36269318,32.8658663 L27.2447159,51.755584 C27.4696705,51.919719 27.7320114,51.9999521 27.9932386,51.9999521 C28.2622614,51.9999521 28.5292159,51.9133387 28.7525795,51.746492 C28.753375,51.745854 28.7543295,51.745535 28.755125,51.7448969 L54.6377841,32.8655472 C55.7988295,32.0172773 56.2807159,30.5249092 55.8366932,29.1508969 Z" id="Fill-1"></path>
                </g>
            </g>
        </g>
    </g>
</svg>