<svg xmlns="http://www.w3.org/2000/svg" viewBox="0 0 1106 395" width="140" height="44" class="nav-logo"><defs><style>.a{fill:#009245;}.b{fill:#2e3192;}.c{fill:#662d91;}.d{fill:#de0b16;}.e{fill:#fca326;}.f{fill:#fc6d26;}.g{fill:#e24329;}</style></defs><title>rainbow-alt-wm-no-bg</title><path class="a" d="M803.7,116.4H781.9V278.9h88.3V258.8H803.8V116.4h-0.1Z"/><path class="b" d="M954.3,250.4a37.2,37.2,0,0,1-27,11.4c-16.6,0-23.3-8.2-23.3-18.9,0-16.1,11.2-23.8,35-23.8a104.7,104.7,0,0,1,15.4,1.2v30.1h-0.1Zm-22.6-98.5a72.2,72.2,0,0,0-46.4,16.7L893,182c8.9-5.2,19.8-10.4,35.5-10.4,17.9,0,25.8,9.2,25.8,24.6v7.9a99.4,99.4,0,0,0-15.1-1.2c-38.2,0-57.6,13.4-57.6,41.4,0,25.1,15.4,37.7,38.7,37.7,15.7,0,30.8-7.2,36-18.9l4,15.9h15.4V195.8c-0.1-26.3-11.5-43.9-44-43.9h0Z"/><path class="c" d="M1046.1,262.5c-8.2,0-15.4-1-20.8-3.5V183.9c7.4-6.2,16.6-10.7,28.3-10.7,21.1,0,29.2,14.9,29.2,39,0,34.2-13.1,50.3-36.7,50.3m9.2-110.6a39.9,39.9,0,0,0-30,13.3V116.4H1004V274.9c10.7,4.5,25.3,6.9,41.2,6.9,40.7,0,60.3-26,60.3-70.9-0.1-35.5-18.2-59-50.2-59"/><path class="d" d="M566.3,134c19.3,0,31.8,6.4,39.9,12.9l9.4-16.3c-12.7-11.2-29.9-17.2-48.3-17.2-46.4,0-78.9,28.3-78.9,85.4,0,59.8,35.1,83.1,75.2,83.1a127.8,127.8,0,0,0,48.4-9.4l-0.5-63.9V188.5H552v20.1h38l0.5,48.5c-5,2.5-13.6,4.5-25.3,4.5-32.2,0-53.8-20.3-53.8-63S533.6,134,566.3,134"/><path class="e" d="M719.9,116.4H698.6V238c0,26.3,11.4,43.9,43.9,43.9a70.1,70.1,0,0,0,13.1-1.2V261.6a62.4,62.4,0,0,1-9.9.7c-17.9,0-25.8-9.2-25.8-24.6v-65h35.7V154.9H720V116.4h-0.1Z"/><path class="f" d="M644.4,278.9h21.3v-124H644.4v124h0Z"/><path class="f" d="M644.4,137.8h21.3V116.5H644.4v21.3h0Z"/><path class="g" d="M428.3,225.8l-24-73.8L356.8,5.7c-2.4-7.5-13.1-7.5-15.6,0L293.7,152H135.9L88.4,5.7c-2.4-7.5-13-7.5-15.6,0L25.4,152l-24,73.9a16.4,16.4,0,0,0,5.9,18.3L214.8,394.9,422.3,244.1a16.4,16.4,0,0,0,6-18.3"/><path class="g" d="M214.9,394.8h0L293.8,152H136l78.9,242.8h0Z"/><path class="f" d="M214.8,394.8L135.9,152H25.4L214.8,394.8h0Z"/><path class="e" d="M25.4,152h0l-24,73.8a16.4,16.4,0,0,0,5.9,18.3L214.8,394.9,25.4,152h0Z"/><path class="g" d="M25.4,152H136L88.4,5.8c-2.4-7.5-13-7.5-15.6,0L25.4,152h0Z"/><path class="f" d="M214.9,394.8L293.8,152H404.4L214.9,394.8h0Z"/><path class="e" d="M404.3,152h0l24,73.8a16.4,16.4,0,0,1-5.9,18.3L214.9,394.8,404.3,152h0Z"/><path class="g" d="M404.4,152H293.8L341.3,5.8c2.4-7.5,13.1-7.5,15.6,0L404.4,152h0Z"/></svg>
