<?xml version="1.0" encoding="UTF-8" standalone="no"?>
<svg
   xmlns:dc="http://purl.org/dc/elements/1.1/"
   xmlns:cc="http://creativecommons.org/ns#"
   xmlns:rdf="http://www.w3.org/1999/02/22-rdf-syntax-ns#"
   xmlns:svg="http://www.w3.org/2000/svg"
   xmlns="http://www.w3.org/2000/svg"
   xmlns:sodipodi="http://sodipodi.sourceforge.net/DTD/sodipodi-0.dtd"
   xmlns:inkscape="http://www.inkscape.org/namespaces/inkscape"
   height="36"
   viewBox="0 0 1231 342"
   class="nav-logo"
   version="1.1"
   id="svg22"
   sodipodi:docname="wm_web.svg"
   inkscape:version="0.92.4 (5da689c313, 2019-01-14)">
  <metadata
     id="metadata28">
    <rdf:RDF>
      <cc:Work
         rdf:about="">
        <dc:format>image/svg+xml</dc:format>
        <dc:type
           rdf:resource="http://purl.org/dc/dcmitype/StillImage" />
      </cc:Work>
    </rdf:RDF>
  </metadata>
  <defs
     id="defs26">
    <clipPath
       clipPathUnits="userSpaceOnUse"
       id="clipPath20">
      <path
         d="M 0,404.205 H 896.205 V 0 H 0 Z"
         id="path18"
         inkscape:connector-curvature="0" />
    </clipPath>
  </defs>
  <sodipodi:namedview
     pagecolor="#ffffff"
     bordercolor="#666666"
     borderopacity="1"
     objecttolerance="10"
     gridtolerance="10"
     guidetolerance="10"
     inkscape:pageopacity="0"
     inkscape:pageshadow="2"
     inkscape:window-width="1920"
     inkscape:window-height="1020"
     id="namedview24"
     showgrid="false"
     inkscape:zoom="3.9902518"
     inkscape:cx="564.44098"
     inkscape:cy="72.027621"
     inkscape:window-x="0"
     inkscape:window-y="31"
     inkscape:window-maximized="1"
     inkscape:current-layer="svg22" />
  <path
     inkscape:connector-curvature="0"
     style="fill:#69be29;stroke-width:1.56389594"
     d="M 86.186027,16.941093 H 14.963076 c -2.226988,0 -4.031724,1.804736 -4.031724,4.031724 V 204.4616 c 0,2.22699 1.804736,4.03173 4.031724,4.03173 h 71.222951 c 67.042653,0 96.595603,-48.98435 95.774553,-97.41821 C 181.14266,63.735988 151.86184,16.941093 86.186027,16.941093 Z M 87.468422,166.31662 H 57.042826 c -2.226988,0 -4.031724,-1.80474 -4.031724,-4.03173 V 63.149527 c 0,-2.226987 1.804736,-4.031723 4.031724,-4.031723 h 30.425596 c 36.371528,0 51.686758,26.085785 52.404588,52.166876 0.71314,27.27435 -14.36282,55.03194 -52.404588,55.03194 z"
     id="path2-3" />
  <path
     inkscape:connector-curvature="0"
     style="fill:#69be29;stroke-width:1.56389594"
     d="m 233.24386,60.595685 h -46.9982 c -2.22699,0 -4.03173,-1.804736 -4.03173,-4.031724 V 20.411378 c 0,-2.226988 1.80474,-4.031724 4.03173,-4.031724 h 149.55693 c 2.22699,0 4.03173,1.804736 4.03173,4.031724 v 36.152583 c 0,2.226988 -1.80474,4.031724 -4.03173,4.031724 h -46.9982 c -2.22699,0 -4.03172,1.804736 -4.03172,4.031724 V 203.90017 c 0,2.22698 -1.80474,4.03172 -4.03173,4.03172 h -39.43207 c -2.22699,0 -4.03172,-1.80474 -4.03172,-4.03172 V 64.627409 c 0,-2.226988 -1.8063,-4.031724 -4.03329,-4.031724 z"
     id="path4" />
  <path
     inkscape:connector-curvature="0"
     style="fill:#36444c;stroke-width:1.56389594;fill-opacity:1"
     d="m 434.05279,16.977062 c -57.7187,0 -93.74148,43.376219 -93.74148,96.102968 0,53.0974 35.28931,96.09829 94.11213,96.09829 58.81656,0 94.47652,-42.99933 94.47652,-96.09829 -0.002,-52.726749 -37.12846,-96.102968 -94.84717,-96.102968 z m -0.22363,153.033478 c -33.42046,0 -50.31836,-26.28753 -50.31836,-54.44547 0,-27.787309 17.2748,-54.823942 50.31836,-54.823942 30.78685,0 50.3121,27.036633 50.3121,54.823942 0,28.15794 -16.89634,54.44547 -50.3121,54.44547 z"
     id="path6-3" />
  <path
     inkscape:connector-curvature="0"
     style="fill:#36444c;stroke-width:1.56389594;fill-opacity:1"
     d="m 684.47633,207.93189 c -0.80853,0 -1.4638,-0.65527 -1.4638,-1.46381 v -96.90056 c 0,-41.161738 -32.38672,-68.087335 -92.59985,-36.485689 -0.48793,0.256479 -0.8101,0.774128 -0.8101,1.32462 V 206.46808 c 0,0.80854 -0.65527,1.46381 -1.4638,1.46381 h -43.20576 c -0.80853,0 -1.4638,-0.65527 -1.4638,-1.46381 V 17.92322 c 0,-0.808535 0.65527,-1.463807 1.4638,-1.463807 l 41.17738,-0.123548 c 0.74129,0 1.36529,0.553619 1.45286,1.290214 l 0.1736,24.631362 c 0.14231,1.191689 1.5811,1.670241 2.45375,0.846068 18.36639,-17.340479 36.88918,-26.184311 59.65481,-26.184311 44.22542,0 79.68363,33.173362 79.68363,92.265172 v 97.28528 c 0,0.80853 -0.65527,1.4638 -1.46381,1.4638 h -43.58891 z"
     id="path8-6" />
  <path
     inkscape:connector-curvature="0"
     style="fill:#36444c;stroke-width:1.56389594;fill-opacity:1"
     d="m 1012.5489,190.18323 c 0,-6.52457 2.2911,-12.51586 6.0945,-17.24195 h -2.7994 c -25.78083,0 -155.32928,0 -171.04487,0 -29.13851,0 -47.64878,-15.47788 -53.19123,-35.32997 -0.92426,-3.30921 1.68588,-6.57775 5.12176,-6.57775 h 133.22673 c 2.75089,0 5.08266,-2.14097 5.27346,-4.88405 5.05451,-72.977639 -33.27971,-109.641616 -93.89475,-109.641616 -60.08019,0 -98.38,40.55495 -98.38,96.873976 0,59.32952 38.75334,94.80024 102.58375,94.80024 15.29334,0 118.83264,1.11975 174.63555,0.97744 -4.7104,-4.94817 -7.6255,-11.62131 -7.6255,-18.97632 z M 793.65817,85.768155 c 8.53574,-19.138959 27.06322,-28.705311 49.17827,-28.705311 23.76965,0 41.39789,9.822831 46.773,29.47162 0.90393,3.306076 -1.69996,6.571491 -5.12802,6.571491 h -85.95015 c -3.76586,0 -6.40728,-3.898793 -4.8731,-7.3378 z"
     id="path10-9" />
  <circle
     style="fill:#69be29;stroke-width:1.56389594"
     cx="1039.5105"
     cy="190.67116"
     r="16.420908"
     id="circle12" />
  <g
     id="g64"
     transform="matrix(1.563896,0,0,1.563896,10.931352,16.335865)"
     style="fill:#36444c;fill-opacity:1">
    <path
       style="fill:#36444c;fill-opacity:1"
       inkscape:connector-curvature="0"
       d="m 222.678,170.789 c 0,-0.461 -0.195,-0.893 -0.583,-1.293 -0.389,-0.4 -1.226,-0.849 -2.512,-1.347 -1.287,-0.497 -2.136,-0.825 -2.549,-0.983 -0.413,-0.157 -0.874,-0.395 -1.384,-0.71 -0.51,-0.315 -0.947,-0.655 -1.311,-1.02 -0.364,-0.364 -0.698,-0.85 -1.001,-1.456 -0.304,-0.606 -0.455,-1.359 -0.455,-2.258 0,-0.582 0.109,-1.207 0.328,-1.875 0.219,-0.667 0.606,-1.305 1.165,-1.911 0.558,-0.606 1.323,-1.135 2.294,-1.584 0.971,-0.449 2.148,-0.674 3.532,-0.674 1.505,0 2.846,0.236 4.023,0.71 1.177,0.474 2.105,1.099 2.785,1.875 l -2.876,2.913 c -0.461,-0.51 -1.05,-0.94 -1.766,-1.293 -0.716,-0.352 -1.475,-0.527 -2.275,-0.527 -0.874,0 -1.554,0.2 -2.039,0.601 -0.486,0.4 -0.729,0.904 -0.729,1.511 0,0.438 0.188,0.868 0.564,1.293 0.376,0.425 1.444,0.959 3.204,1.602 1.76,0.644 3.01,1.232 3.75,1.767 0.74,0.534 1.311,1.152 1.711,1.856 0.401,0.704 0.601,1.554 0.601,2.549 0,1.116 -0.322,2.148 -0.965,3.095 -0.644,0.946 -1.529,1.693 -2.658,2.239 -1.128,0.546 -2.494,0.819 -4.096,0.819 -0.898,0 -1.875,-0.109 -2.931,-0.328 -1.056,-0.218 -2.015,-0.569 -2.876,-1.056 -0.862,-0.485 -1.547,-0.983 -2.057,-1.493 l 2.694,-3.167 c 0.583,0.631 1.353,1.189 2.312,1.675 0.958,0.485 1.984,0.728 3.077,0.728 0.995,0 1.748,-0.212 2.257,-0.637 0.509,-0.425 0.766,-0.966 0.766,-1.621 z"
       id="path14-0" />
    <path
       style="fill:#36444c;fill-opacity:1"
       inkscape:connector-curvature="0"
       d="m 246.598,158.518 c 0.364,-0.582 0.886,-1.116 1.565,-1.602 0.679,-0.485 1.414,-0.825 2.203,-1.02 0.788,-0.194 1.523,-0.292 2.203,-0.292 2.015,0 3.556,0.564 4.624,1.693 1.068,1.129 1.602,2.81 1.602,5.043 v 13.981 h -4.479 V 163.14 c 0,-1.237 -0.286,-2.166 -0.855,-2.785 -0.571,-0.619 -1.329,-0.929 -2.276,-0.929 -0.85,0 -1.633,0.262 -2.348,0.783 -0.716,0.522 -1.208,1.159 -1.475,1.911 v 14.2 h -4.515 v -12.816 c 0,-1.335 -0.279,-2.349 -0.837,-3.04 -0.559,-0.692 -1.372,-1.038 -2.439,-1.038 -0.85,0 -1.614,0.279 -2.294,0.838 -0.68,0.559 -1.141,1.226 -1.383,2.002 v 14.055 h -4.479 v -20.28 h 3.604 l 0.801,2.002 h 0.146 c 0.51,-0.703 1.238,-1.286 2.185,-1.747 0.947,-0.461 1.99,-0.692 3.131,-0.692 2.573,0 4.296,0.972 5.17,2.913 h 0.146 z"
       id="path16-4" />
    <path
       style="fill:#36444c;fill-opacity:1"
       inkscape:connector-curvature="0"
       d="m 270.52,155.715 c 2.5,0 4.399,0.517 5.698,1.548 1.298,1.032 1.948,2.676 1.948,4.934 v 8.52 c 0,1.457 0.534,2.185 1.602,2.185 h 0.546 v 3.132 c -0.559,0.34 -1.25,0.51 -2.076,0.51 -0.922,0 -1.687,-0.207 -2.293,-0.619 -0.607,-0.412 -1.069,-0.971 -1.384,-1.675 h -0.146 c -1.287,1.626 -3.12,2.439 -5.498,2.439 -0.923,0 -1.845,-0.188 -2.767,-0.564 -0.923,-0.376 -1.681,-1.025 -2.276,-1.948 -0.595,-0.922 -0.892,-1.93 -0.892,-3.021 0,-2.233 0.977,-3.908 2.931,-5.024 1.954,-1.116 4.63,-1.614 8.028,-1.493 v -1.82 c 0,-1.238 -0.297,-2.118 -0.892,-2.64 -0.595,-0.522 -1.438,-0.783 -2.53,-0.783 -0.51,0 -1.032,0.085 -1.565,0.255 -0.535,0.17 -1.001,0.443 -1.402,0.819 -0.401,0.377 -0.71,0.795 -0.929,1.256 l -3.204,-2.403 c 1.748,-2.406 4.115,-3.608 7.101,-3.608 z m 3.422,15.548 v -3.496 c -2.063,-0.121 -3.671,0.073 -4.824,0.583 -1.153,0.51 -1.729,1.311 -1.729,2.403 0,0.704 0.242,1.286 0.728,1.747 0.485,0.462 1.141,0.692 1.966,0.692 0.801,0 1.547,-0.183 2.239,-0.547 0.692,-0.364 1.232,-0.824 1.62,-1.382 z"
       id="path18-8" />
    <path
       style="fill:#36444c;fill-opacity:1"
       inkscape:connector-curvature="0"
       d="m 295.57,155.824 v 4.479 c -0.729,-0.146 -1.493,-0.219 -2.294,-0.219 -0.923,0 -1.827,0.177 -2.712,0.528 -0.887,0.353 -1.597,0.844 -2.13,1.475 v 14.236 h -4.442 v -20.28 h 3.459 l 0.947,2.694 h 0.146 c 0.437,-0.922 1.11,-1.669 2.021,-2.239 0.91,-0.57 1.972,-0.855 3.186,-0.855 0.726,-0.001 1.333,0.06 1.819,0.181 z"
       id="path20" />
    <path
       style="fill:#36444c;fill-opacity:1"
       inkscape:connector-curvature="0"
       d="m 305.072,176.505 c -1.797,0 -3.192,-0.503 -4.188,-1.511 -0.996,-1.007 -1.493,-2.591 -1.493,-4.751 v -10.741 h -2.767 v -2.804 l 2.767,-0.91 1.493,-4.952 h 2.913 v 5.207 h 5.279 v 3.459 h -5.279 v 10.741 c 0,0.85 0.218,1.486 0.655,1.911 0.437,0.425 1.031,0.637 1.784,0.637 0.534,0 1.062,-0.078 1.583,-0.236 0.522,-0.157 0.953,-0.357 1.293,-0.601 l 1.201,3.423 c -1.163,0.752 -2.911,1.128 -5.241,1.128 z"
       id="path22" />
    <path
       style="fill:#36444c;fill-opacity:1"
       inkscape:connector-curvature="0"
       d="m 312.318,173.519 c 0,-0.874 0.297,-1.614 0.892,-2.221 0.594,-0.606 1.316,-0.91 2.167,-0.91 0.412,0 0.861,0.104 1.347,0.31 0.485,0.206 0.897,0.57 1.238,1.092 0.339,0.522 0.51,1.099 0.51,1.729 0,0.825 -0.304,1.535 -0.91,2.13 -0.607,0.596 -1.335,0.893 -2.185,0.893 -0.85,0 -1.572,-0.297 -2.167,-0.893 -0.595,-0.594 -0.892,-1.304 -0.892,-2.13 z"
       id="path24" />
    <path
       style="fill:#36444c;fill-opacity:1"
       inkscape:connector-curvature="0"
       d="m 346.541,159.247 c 0.293,-0.631 0.76,-1.202 1.402,-1.711 0.643,-0.51 1.359,-0.874 2.148,-1.093 0.789,-0.219 1.535,-0.328 2.238,-0.328 1.967,0 3.479,0.56 4.533,1.675 1.057,1.117 1.584,2.744 1.584,4.88 v 13.653 h -2.803 v -13.071 c 0,-1.48 -0.346,-2.621 -1.037,-3.423 -0.693,-0.801 -1.645,-1.201 -2.859,-1.201 -0.85,0 -1.619,0.2 -2.312,0.601 -0.691,0.4 -1.207,0.855 -1.547,1.365 -0.34,0.51 -0.57,0.96 -0.691,1.348 v 14.382 h -2.84 v -12.853 c 0,-0.729 -0.109,-1.48 -0.328,-2.258 -0.219,-0.776 -0.643,-1.401 -1.273,-1.875 -0.633,-0.474 -1.408,-0.71 -2.331,-0.71 -0.559,0 -1.159,0.128 -1.802,0.383 -0.644,0.254 -1.214,0.68 -1.711,1.273 -0.498,0.596 -0.819,1.22 -0.965,1.876 v 14.163 h -2.84 v -19.807 h 2.185 l 0.583,2.111 h 0.146 c 0.533,-0.825 1.268,-1.45 2.203,-1.875 0.934,-0.425 1.912,-0.638 2.93,-0.638 0.68,0 1.379,0.098 2.094,0.292 0.717,0.194 1.348,0.546 1.895,1.056 0.545,0.51 0.965,1.104 1.256,1.784 h 0.142 z"
       id="path26" />
    <path
       style="fill:#36444c;fill-opacity:1"
       inkscape:connector-curvature="0"
       d="m 371.41,176.651 c -5.389,0 -8.083,-3.398 -8.083,-10.195 0,-2.379 0.328,-4.314 0.983,-5.808 0.655,-1.492 1.584,-2.615 2.785,-3.367 1.202,-0.753 2.713,-1.129 4.533,-1.129 1.093,0 2.142,0.158 3.149,0.473 1.007,0.316 1.881,0.868 2.622,1.657 0.739,0.789 1.316,1.833 1.729,3.131 0.412,1.299 0.618,2.919 0.618,4.861 0,1.554 -0.158,2.961 -0.473,4.224 -0.316,1.262 -0.808,2.354 -1.475,3.276 -0.668,0.923 -1.536,1.633 -2.604,2.13 -1.066,0.497 -2.327,0.747 -3.784,0.747 z m -5.17,-10.414 c 0,2.671 0.431,4.661 1.293,5.972 0.861,1.311 2.227,1.966 4.096,1.966 1.869,0 3.204,-0.619 4.005,-1.856 0.802,-1.238 1.202,-3.18 1.202,-5.826 0,-2.67 -0.432,-4.654 -1.293,-5.953 -0.861,-1.298 -2.239,-1.947 -4.133,-1.947 -1.845,0 -3.167,0.619 -3.969,1.856 -0.801,1.237 -1.201,3.167 -1.201,5.788 z"
       id="path28" />
    <path
       style="fill:#36444c;fill-opacity:1"
       inkscape:connector-curvature="0"
       d="m 384.737,175.632 v -26.943 h 2.803 v 9.175 h 0.146 c 0.606,-0.485 1.353,-0.861 2.239,-1.129 0.886,-0.267 1.741,-0.4 2.566,-0.4 1.043,0 2.026,0.183 2.949,0.546 0.922,0.364 1.724,0.929 2.403,1.693 0.679,0.765 1.213,1.754 1.602,2.968 0.389,1.214 0.583,2.634 0.583,4.26 0,1.602 -0.2,3.076 -0.601,4.424 -0.401,1.347 -1.008,2.5 -1.821,3.459 -0.813,0.959 -1.838,1.699 -3.076,2.221 -1.238,0.522 -2.646,0.783 -4.224,0.783 -2.354,-0.002 -4.211,-0.354 -5.569,-1.057 z m 6.006,-1.42 c 1.967,0 3.532,-0.686 4.697,-2.058 1.165,-1.371 1.748,-3.355 1.748,-5.953 0,-1.698 -0.225,-3.089 -0.674,-4.169 -0.449,-1.08 -1.074,-1.887 -1.875,-2.421 -0.801,-0.534 -1.772,-0.802 -2.913,-0.802 -0.777,0 -1.554,0.177 -2.33,0.528 -0.777,0.353 -1.384,0.832 -1.82,1.438 v 12.889 c 0.849,0.365 1.906,0.548 3.167,0.548 z"
       id="path30" />
    <path
       style="fill:#36444c;fill-opacity:1"
       inkscape:connector-curvature="0"
       d="m 405.162,150.726 c 0,-0.582 0.2,-1.073 0.601,-1.475 0.4,-0.4 0.88,-0.601 1.438,-0.601 0.582,0 1.079,0.2 1.492,0.601 0.413,0.401 0.619,0.893 0.619,1.475 0,0.583 -0.206,1.068 -0.619,1.457 -0.413,0.389 -0.91,0.582 -1.492,0.582 -0.559,0 -1.038,-0.2 -1.438,-0.601 -0.4,-0.401 -0.601,-0.879 -0.601,-1.438 z m 0.801,25.597 v -19.807 h 2.84 v 19.807 z"
       id="path32" />
    <path
       style="fill:#36444c;fill-opacity:1"
       inkscape:connector-curvature="0"
       d="m 421.218,176.505 c -3.374,0 -5.062,-1.82 -5.062,-5.461 V 158.81 h -2.949 v -1.82 l 2.949,-0.546 0.874,-5.134 h 1.93 v 5.207 h 5.462 v 2.293 h -5.462 v 12.089 c 0,1.068 0.255,1.856 0.765,2.366 0.51,0.51 1.214,0.765 2.112,0.765 1.286,0 2.294,-0.23 3.021,-0.691 l 0.801,2.257 c -1.068,0.606 -2.547,0.909 -4.441,0.909 z"
       id="path34" />
    <path
       style="fill:#36444c;fill-opacity:1"
       inkscape:connector-curvature="0"
       d="m 442.008,172.609 1.274,2.185 c -0.704,0.534 -1.591,0.965 -2.658,1.293 -1.068,0.327 -2.258,0.491 -3.568,0.491 -2.889,0 -5.061,-0.812 -6.518,-2.439 -1.456,-1.626 -2.185,-4.235 -2.185,-7.828 0,-1.699 0.225,-3.204 0.674,-4.515 0.449,-1.311 1.062,-2.373 1.839,-3.187 0.776,-0.812 1.675,-1.42 2.694,-1.82 1.019,-0.4 2.087,-0.601 3.204,-0.601 2.306,0 4.084,0.698 5.334,2.094 1.25,1.396 1.875,3.283 1.875,5.661 0,0.996 -0.072,2.137 -0.219,3.423 h -12.598 c 0.121,2.379 0.692,4.097 1.712,5.152 1.019,1.056 2.536,1.584 4.551,1.584 0.68,0 1.462,-0.121 2.349,-0.364 0.887,-0.242 1.633,-0.619 2.24,-1.129 z m -5.498,-13.981 c -1.044,0 -1.948,0.249 -2.713,0.746 -0.765,0.498 -1.371,1.215 -1.82,2.148 -0.449,0.935 -0.71,2.106 -0.783,3.514 h 9.94 l 0.036,-1.129 c 0,-3.519 -1.553,-5.279 -4.66,-5.279 z"
       id="path36" />
    <path
       style="fill:#36444c;fill-opacity:1"
       inkscape:connector-curvature="0"
       d="m 448.124,166.711 c 0,-1.748 0.206,-3.295 0.619,-4.643 0.413,-1.347 0.995,-2.451 1.748,-3.312 0.752,-0.861 1.644,-1.505 2.676,-1.931 1.031,-0.424 2.154,-0.637 3.368,-0.637 1.067,0 2.117,0.17 3.149,0.51 1.031,0.34 1.862,0.862 2.494,1.565 l -1.894,2.075 c -1.044,-1.092 -2.343,-1.638 -3.896,-1.638 -1.675,0 -2.986,0.613 -3.933,1.838 -0.946,1.227 -1.42,3.162 -1.42,5.808 0,5.195 1.784,7.792 5.353,7.792 1.65,0 2.937,-0.521 3.859,-1.565 l 1.747,1.966 c -0.655,0.753 -1.511,1.293 -2.566,1.62 -1.056,0.328 -2.154,0.492 -3.295,0.492 -1.87,0 -3.387,-0.401 -4.552,-1.202 -1.165,-0.801 -2.033,-1.917 -2.603,-3.35 -0.568,-1.431 -0.854,-3.227 -0.854,-5.388 z"
       id="path38" />
    <path
       style="fill:#36444c;fill-opacity:1"
       inkscape:connector-curvature="0"
       d="m 475.068,156.188 c 1.918,0 3.441,0.577 4.57,1.729 1.128,1.153 1.692,2.725 1.692,4.715 v 13.69 h -2.84 V 163.07 c 0,-0.923 -0.188,-1.735 -0.564,-2.439 -0.376,-0.704 -0.874,-1.202 -1.492,-1.493 -0.619,-0.291 -1.27,-0.437 -1.948,-0.437 -0.607,0 -1.274,0.121 -2.003,0.363 -0.728,0.243 -1.39,0.662 -1.984,1.257 -0.594,0.595 -1.025,1.22 -1.292,1.875 v 14.127 h -2.84 v -27.635 h 2.84 v 10.013 h 0.146 c 0.679,-0.825 1.529,-1.45 2.549,-1.876 1.018,-0.424 2.074,-0.637 3.166,-0.637 z"
       id="path40" />
    <path
       style="fill:#36444c;fill-opacity:1"
       inkscape:connector-curvature="0"
       d="m 486.063,174.139 c 0,-0.631 0.212,-1.171 0.638,-1.62 0.424,-0.449 0.94,-0.674 1.547,-0.674 0.655,0 1.202,0.219 1.639,0.655 0.437,0.438 0.655,0.983 0.655,1.639 0,0.607 -0.225,1.123 -0.674,1.548 -0.449,0.425 -0.989,0.637 -1.62,0.637 -0.582,0 -1.092,-0.219 -1.529,-0.655 -0.437,-0.439 -0.656,-0.947 -0.656,-1.53 z"
       id="path42" />
    <path
       style="fill:#36444c;fill-opacity:1"
       inkscape:connector-curvature="0"
       d="m 513.879,170.789 c 0,-0.461 -0.194,-0.893 -0.582,-1.293 -0.389,-0.4 -1.227,-0.849 -2.513,-1.347 -1.286,-0.497 -2.136,-0.825 -2.549,-0.983 -0.413,-0.157 -0.873,-0.395 -1.383,-0.71 -0.51,-0.315 -0.947,-0.655 -1.312,-1.02 -0.363,-0.364 -0.697,-0.85 -1.001,-1.456 -0.304,-0.606 -0.455,-1.359 -0.455,-2.258 0,-0.582 0.109,-1.207 0.328,-1.875 0.218,-0.667 0.606,-1.305 1.165,-1.911 0.558,-0.606 1.322,-1.135 2.294,-1.584 0.97,-0.449 2.147,-0.674 3.531,-0.674 1.505,0 2.846,0.236 4.023,0.71 1.177,0.474 2.105,1.099 2.785,1.875 l -2.876,2.913 c -0.462,-0.51 -1.051,-0.94 -1.766,-1.293 -0.717,-0.352 -1.475,-0.527 -2.276,-0.527 -0.874,0 -1.554,0.2 -2.039,0.601 -0.485,0.401 -0.728,0.904 -0.728,1.511 0,0.438 0.188,0.868 0.564,1.293 0.376,0.425 1.443,0.959 3.204,1.602 1.759,0.644 3.009,1.232 3.75,1.767 0.74,0.534 1.311,1.152 1.711,1.856 0.4,0.704 0.601,1.554 0.601,2.549 0,1.116 -0.321,2.148 -0.965,3.095 -0.644,0.947 -1.529,1.693 -2.657,2.239 -1.129,0.546 -2.494,0.819 -4.097,0.819 -0.898,0 -1.875,-0.109 -2.931,-0.328 -1.056,-0.218 -2.016,-0.569 -2.877,-1.056 -0.861,-0.485 -1.547,-0.983 -2.057,-1.493 l 2.694,-3.167 c 0.582,0.631 1.353,1.189 2.312,1.675 0.959,0.486 1.984,0.728 3.077,0.728 0.995,0 1.747,-0.212 2.257,-0.637 0.51,-0.425 0.768,-0.966 0.768,-1.621 z"
       id="path44" />
    <path
       style="fill:#36444c;fill-opacity:1"
       inkscape:connector-curvature="0"
       d="m 530.373,176.687 c -1.99,0 -3.629,-0.376 -4.915,-1.129 -1.287,-0.752 -2.264,-1.875 -2.931,-3.368 -0.668,-1.492 -1.002,-3.465 -1.002,-5.916 0,-2.428 0.358,-4.412 1.074,-5.953 0.716,-1.541 1.729,-2.7 3.041,-3.478 1.311,-0.776 2.949,-1.165 4.915,-1.165 1.214,0 2.372,0.164 3.478,0.491 1.104,0.328 2.057,0.893 2.857,1.693 0.802,0.801 1.42,1.863 1.857,3.186 0.437,1.323 0.655,3.004 0.655,5.043 0,1.578 -0.17,3.017 -0.51,4.314 -0.34,1.299 -0.874,2.416 -1.603,3.35 -0.728,0.936 -1.675,1.657 -2.84,2.167 -1.165,0.51 -2.522,0.765 -4.076,0.765 z m -4.222,-10.631 c 0,2.354 0.346,4.114 1.037,5.279 0.692,1.165 1.814,1.748 3.368,1.748 1.553,0 2.651,-0.547 3.295,-1.639 0.643,-1.093 0.965,-2.804 0.965,-5.134 0,-2.379 -0.352,-4.145 -1.056,-5.298 -0.704,-1.152 -1.845,-1.729 -3.423,-1.729 -1.456,0 -2.519,0.553 -3.186,1.657 -0.667,1.105 -1,2.81 -1,5.116 z"
       id="path46" />
    <path
       style="fill:#36444c;fill-opacity:1"
       inkscape:connector-curvature="0"
       d="m 543.773,148.725 h 4.478 v 21.81 c 0,1.456 0.619,2.185 1.857,2.185 0.437,0 0.801,-0.061 1.092,-0.183 v 3.605 c -0.752,0.314 -1.614,0.473 -2.585,0.473 -1.529,0 -2.719,-0.431 -3.567,-1.292 -0.851,-0.861 -1.274,-2.069 -1.274,-3.623 v -22.975 z"
       id="path48" />
    <path
       style="fill:#36444c;fill-opacity:1"
       inkscape:connector-curvature="0"
       d="m 554.659,169.733 v -13.69 h 4.515 v 13.144 c 0,1.312 0.297,2.301 0.893,2.968 0.595,0.668 1.45,1.001 2.566,1.001 0.583,0 1.184,-0.121 1.803,-0.364 0.619,-0.242 1.135,-0.643 1.547,-1.201 0.413,-0.558 0.668,-1.152 0.765,-1.784 v -13.763 h 4.479 v 20.28 h -3.714 l -0.691,-1.966 h -0.146 c -0.534,0.68 -1.263,1.244 -2.185,1.692 -0.923,0.449 -2.027,0.674 -3.313,0.674 -4.323,0 -6.495,-2.331 -6.519,-6.991 z"
       id="path50" />
    <path
       style="fill:#36444c;fill-opacity:1"
       inkscape:connector-curvature="0"
       d="m 582.803,176.505 c -1.796,0 -3.191,-0.503 -4.187,-1.511 -0.996,-1.007 -1.493,-2.591 -1.493,-4.751 v -10.741 h -2.768 v -2.804 l 2.768,-0.91 1.493,-4.952 h 2.912 v 5.207 h 5.28 v 3.459 h -5.28 v 10.741 c 0,0.85 0.219,1.486 0.655,1.911 0.438,0.425 1.032,0.637 1.784,0.637 0.534,0 1.062,-0.078 1.584,-0.236 0.521,-0.157 0.952,-0.357 1.293,-0.601 l 1.201,3.423 c -1.164,0.752 -2.912,1.128 -5.242,1.128 z"
       id="path52" />
    <path
       style="fill:#36444c;fill-opacity:1"
       inkscape:connector-curvature="0"
       d="m 590.813,150.545 c 0,-0.801 0.261,-1.475 0.782,-2.021 0.522,-0.547 1.159,-0.819 1.912,-0.819 0.801,0 1.468,0.272 2.002,0.819 0.534,0.546 0.802,1.22 0.802,2.021 0,0.753 -0.268,1.384 -0.802,1.894 -0.534,0.51 -1.201,0.765 -2.002,0.765 -0.729,0 -1.359,-0.261 -1.894,-0.783 -0.534,-0.523 -0.8,-1.148 -0.8,-1.876 z m 0.582,25.778 v -20.28 h 4.479 v 20.28 z"
       id="path54" />
    <path
       style="fill:#36444c;fill-opacity:1"
       inkscape:connector-curvature="0"
       d="m 609.381,176.687 c -1.99,0 -3.629,-0.376 -4.915,-1.129 -1.287,-0.752 -2.264,-1.875 -2.931,-3.368 -0.668,-1.492 -1.002,-3.465 -1.002,-5.916 0,-2.428 0.358,-4.412 1.074,-5.953 0.716,-1.541 1.729,-2.7 3.041,-3.478 1.311,-0.776 2.949,-1.165 4.915,-1.165 1.214,0 2.372,0.164 3.478,0.491 1.104,0.328 2.057,0.893 2.857,1.693 0.802,0.801 1.42,1.863 1.857,3.186 0.437,1.323 0.655,3.004 0.655,5.043 0,1.578 -0.17,3.017 -0.51,4.314 -0.34,1.299 -0.874,2.416 -1.603,3.35 -0.728,0.936 -1.675,1.657 -2.84,2.167 -1.165,0.51 -2.522,0.765 -4.076,0.765 z m -4.222,-10.631 c 0,2.354 0.346,4.114 1.037,5.279 0.692,1.165 1.814,1.748 3.368,1.748 1.553,0 2.651,-0.547 3.295,-1.639 0.643,-1.093 0.965,-2.804 0.965,-5.134 0,-2.379 -0.352,-4.145 -1.056,-5.298 -0.704,-1.152 -1.845,-1.729 -3.423,-1.729 -1.456,0 -2.519,0.553 -3.186,1.657 -0.667,1.105 -1,2.81 -1,5.116 z"
       id="path56" />
    <path
       style="fill:#36444c;fill-opacity:1"
       inkscape:connector-curvature="0"
       d="m 639.165,162.306 v 14.018 h -4.515 v -13.035 c 0,-1.213 -0.291,-2.16 -0.874,-2.84 -0.582,-0.679 -1.408,-1.02 -2.476,-1.02 -0.923,0 -1.754,0.268 -2.494,0.802 -0.74,0.534 -1.28,1.214 -1.62,2.038 v 14.055 h -4.479 v -20.28 h 3.459 l 0.91,2.002 h 0.146 c 0.534,-0.655 1.311,-1.231 2.33,-1.729 1.02,-0.497 2.1,-0.746 3.241,-0.746 2.039,0 3.604,0.564 4.696,1.693 1.094,1.128 1.652,2.808 1.676,5.042 z"
       id="path58" />
    <path
       style="fill:#36444c;fill-opacity:1"
       inkscape:connector-curvature="0"
       d="m 653.474,170.789 c 0,-0.461 -0.194,-0.893 -0.582,-1.293 -0.389,-0.4 -1.227,-0.849 -2.513,-1.347 -1.286,-0.497 -2.136,-0.825 -2.549,-0.983 -0.413,-0.157 -0.873,-0.395 -1.383,-0.71 -0.51,-0.315 -0.947,-0.655 -1.312,-1.02 -0.363,-0.364 -0.697,-0.85 -1.001,-1.456 -0.304,-0.606 -0.455,-1.359 -0.455,-2.258 0,-0.582 0.109,-1.207 0.328,-1.875 0.218,-0.667 0.606,-1.305 1.165,-1.911 0.558,-0.606 1.322,-1.135 2.294,-1.584 0.97,-0.449 2.147,-0.674 3.531,-0.674 1.505,0 2.846,0.236 4.023,0.71 1.177,0.474 2.105,1.099 2.785,1.875 l -2.876,2.913 c -0.462,-0.51 -1.051,-0.94 -1.766,-1.293 -0.717,-0.352 -1.475,-0.527 -2.276,-0.527 -0.874,0 -1.554,0.2 -2.039,0.601 -0.485,0.401 -0.728,0.904 -0.728,1.511 0,0.438 0.188,0.868 0.564,1.293 0.376,0.425 1.443,0.959 3.204,1.602 1.759,0.644 3.009,1.232 3.75,1.767 0.74,0.534 1.311,1.152 1.711,1.856 0.4,0.704 0.601,1.554 0.601,2.549 0,1.116 -0.321,2.148 -0.965,3.095 -0.644,0.947 -1.529,1.693 -2.657,2.239 -1.129,0.546 -2.494,0.819 -4.097,0.819 -0.898,0 -1.875,-0.109 -2.931,-0.328 -1.056,-0.218 -2.016,-0.569 -2.877,-1.056 -0.861,-0.485 -1.547,-0.983 -2.057,-1.493 l 2.694,-3.167 c 0.582,0.631 1.353,1.189 2.312,1.675 0.959,0.486 1.984,0.728 3.077,0.728 0.995,0 1.747,-0.212 2.257,-0.637 0.51,-0.425 0.768,-0.966 0.768,-1.621 z"
       id="path60" />
    <path
       style="fill:#36444c;fill-opacity:1"
       inkscape:connector-curvature="0"
       d="m 661.302,173.519 c 0,-0.874 0.297,-1.614 0.892,-2.221 0.595,-0.607 1.316,-0.91 2.167,-0.91 0.412,0 0.861,0.104 1.347,0.31 0.486,0.206 0.898,0.57 1.238,1.092 0.34,0.522 0.51,1.099 0.51,1.729 0,0.825 -0.304,1.535 -0.91,2.13 -0.607,0.596 -1.335,0.893 -2.185,0.893 -0.851,0 -1.572,-0.297 -2.167,-0.893 -0.595,-0.594 -0.892,-1.304 -0.892,-2.13 z"
       id="path62" />
  </g>
  <g
     id="g66"
     transform="matrix(1.563896,0,0,1.563896,10.931352,16.335865)" />
  <g
     id="g68"
     transform="matrix(1.563896,0,0,1.563896,10.931352,16.335865)" />
  <g
     id="g70"
     transform="matrix(1.563896,0,0,1.563896,10.931352,16.335865)" />
  <g
     id="g72"
     transform="matrix(1.563896,0,0,1.563896,10.931352,16.335865)" />
  <g
     id="g74"
     transform="matrix(1.563896,0,0,1.563896,10.931352,16.335865)" />
  <g
     id="g76"
     transform="matrix(1.563896,0,0,1.563896,10.931352,16.335865)" />
  <g
     id="g78"
     transform="matrix(1.563896,0,0,1.563896,10.931352,16.335865)" />
  <g
     id="g80"
     transform="matrix(1.563896,0,0,1.563896,10.931352,16.335865)" />
  <g
     id="g82"
     transform="matrix(1.563896,0,0,1.563896,10.931352,16.335865)" />
  <g
     id="g84"
     transform="matrix(1.563896,0,0,1.563896,10.931352,16.335865)" />
  <g
     id="g86"
     transform="matrix(1.563896,0,0,1.563896,10.931352,16.335865)" />
  <g
     id="g88"
     transform="matrix(1.563896,0,0,1.563896,10.931352,16.335865)" />
  <g
     id="g90"
     transform="matrix(1.563896,0,0,1.563896,10.931352,16.335865)" />
  <g
     id="g92"
     transform="matrix(1.563896,0,0,1.563896,10.931352,16.335865)" />
  <g
     id="g94"
     transform="matrix(1.563896,0,0,1.563896,10.931352,16.335865)" />
</svg>
