<svg width="588" height="161" viewBox="0 0 588 161" xmlns="http://www.w3.org/2000/svg"><title>gl-wordmark</title><path d="M300.367 3.13h-20.803l.066 154.74h84.155v-19.136h-63.352l-.066-135.603V3.13zm143.55 127.57c-5.2 5.434-13.946 10.87-25.766 10.87-15.838 0-22.22-7.797-22.22-17.957 0-15.354 10.637-22.678 33.332-22.678 4.255 0 11.11.472 14.655 1.18v28.586l-.001-.001zm-21.51-93.787c-16.8 0-32.208 5.952-44.23 15.858l7.352 12.73c8.51-4.962 18.91-9.924 33.802-9.924 17.02 0 24.585 8.742 24.585 23.39v7.56c-3.31-.71-10.164-1.184-14.42-1.184-36.404 0-54.842 12.757-54.842 39.454 0 23.86 14.656 35.908 36.876 35.908 14.97 0 29.314-6.852 34.278-17.954l3.782 15.118h14.657v-79.14c0-25.04-10.874-41.815-41.84-41.815v-.001zm108.961 105.364c-7.802 0-14.657-.945-19.858-3.308v-71.58c7.093-5.908 15.84-10.16 26.95-10.16 20.092 0 27.893 14.174 27.893 37.09 0 32.6-12.53 47.957-34.985 47.957v.001zm8.742-105.365c-18.592 0-28.6 12.64-28.6 12.64V29.59l-.066-26.458h-20.328l.066 150.957c10.164 4.25 24.11 6.613 39.24 6.613 38.768 0 57.442-24.804 57.442-67.564 0-33.783-17.26-56.227-47.754-56.227v.001zM74.238 19.904c18.438 0 30.258 6.142 38.06 12.285l8.938-15.477C109.052 6.034 92.663.295 75.183.295 30.979.295.013 27.227.013 81.562c0 56.935 33.407 79.14 71.624 79.14 19.148 0 35.46-4.488 46.096-8.976l-.435-60.832V71.76H60.564v19.135h36.167l.437 46.184c-4.727 2.362-13 4.252-24.11 4.252-30.73 0-51.297-19.32-51.297-60.006 0-41.34 21.275-61.422 52.478-61.422l-.001.001zM220.534 3.13h-20.33l.066 25.988v89.771c0 25.04 10.874 41.814 41.84 41.814 4.28 0 8.465-.39 12.53-1.126v-18.245c-2.943.45-6.083.707-9.455.707-17.02 0-24.585-8.74-24.585-23.387V56.757h34.04v-17.01H220.6l-.066-36.617zM148.62 157.87h20.33V39.747h-20.33V157.87zm0-134.422h20.33V3.13h-20.33v20.318z" fill="#FFF"/></svg>