<svg xmlns="http://www.w3.org/2000/svg" viewBox="0 0 76 76"><path d="M64 22.01H10a1 1 0 1 0 0 2h54a1 1 0 1 0 0-2m-3.99 12c-2.964 0-5.425 2.162-5.908 4.99H43.907c-.483-2.828-2.945-4.99-5.908-4.99s-5.425 2.162-5.908 4.99h-10.18c-.483-2.828-2.945-4.99-5.908-4.99-3.309 0-6 2.692-6 6s2.691 6 6 6c2.971 0 5.437-2.172 5.911-5.01h10.173c.474 2.838 2.94 5.01 5.911 5.01s5.437-2.172 5.911-5.01h10.188c.474 2.838 2.94 5.01 5.911 5.01 3.309 0 6-2.691 6-6s-2.69-6-5.998-6M16 44.01c-2.206 0-4-1.794-4-4s1.794-4 4-4 4 1.794 4 4-1.794 4-4 4m21.996 0c-2.206 0-4-1.794-4-4s1.794-4 4-4 4 1.794 4 4-1.794 4-4 4m22.01 0c-2.206 0-4-1.794-4-4s1.794-4 4-4 4 1.794 4 4-1.794 4-4 4m.004 10c-2.969 0-5.434 2.169-5.91 5H43.909c-.477-2.835-2.942-5-5.91-5s-5.434 2.169-5.91 5H21.913c-.477-2.835-2.942-5-5.91-5-3.309 0-6 2.691-6 6s2.691 6 6 6c2.966 0 5.429-2.165 5.909-4.996H32.09c.48 2.831 2.943 4.996 5.909 4.996s5.429-2.165 5.909-4.996h10.193c.48 2.831 2.943 4.996 5.909 4.996 3.309 0 6-2.691 6-6s-2.692-6-6-6M16 64.01c-2.206 0-4-1.794-4-4s1.794-4 4-4 4 1.794 4 4-1.794 4-4 4m21.996 0c-2.206 0-4-1.794-4-4s1.794-4 4-4 4 1.794 4 4-1.794 4-4 4m22.01 0c-2.206 0-4-1.794-4-4s1.794-4 4-4 4 1.794 4 4-1.794 4-4 4"/><path d="M71.03 6H52a1 1 0 1 0 0 2h19.03a2.975 2.975 0 0 1 2.972 2.971v60.06a2.975 2.975 0 0 1-2.972 2.972H4.97a2.975 2.975 0 0 1-2.972-2.972v-60.06A2.975 2.975 0 0 1 4.97 8h27.11c.488 3.386 3.401 5.999 6.92 5.999 3.859 0 7-3.14 7-7s-3.141-7-7-7c-3.519 0-6.433 2.614-6.92 6H4.97A4.977 4.977 0 0 0-.002 10.97v60.06a4.977 4.977 0 0 0 4.972 4.972h66.06a4.977 4.977 0 0 0 4.971-4.972V10.97a4.977 4.977 0 0 0-4.972-4.971m-32.03-4c2.757 0 5 2.243 5 5s-2.243 5-5 5-5-2.243-5-5 2.243-5 5-5"/></svg>