<svg xmlns="http://www.w3.org/2000/svg" viewBox="0 0 76 76"><path d="M61.998 5.072h-16.09c-.478-2.833-2.942-5-5.91-5-3.309 0-6 2.691-6 6s2.691 6 6 6c2.967 0 5.431-2.167 5.91-5h16.09c3.859 0 7 3.14 7 7v48c0 3.859-3.141 7-7 7h-11.09l3.293-3.293a.999.999 0 1 0-1.414-1.414l-5 5a.999.999 0 0 0 0 1.414l5 5a.997.997 0 0 0 1.414 0 .999.999 0 0 0 0-1.414l-3.293-3.293h11.09c4.963 0 9-4.04 9-9v-48c0-4.963-4.04-9-9-9m-22 5c-2.206 0-4-1.794-4-4s1.794-4 4-4 4 1.794 4 4-1.794 4-4 4m-4 53.998c-2.967 0-5.431 2.167-5.91 5h-16.09c-3.859 0-7-3.141-7-7v-48c0-3.86 3.141-7 7-7h11.09l-3.293 3.293a.999.999 0 1 0 1.414 1.414l5-5a.999.999 0 0 0 0-1.414l-5-5a.999.999 0 1 0-1.414 1.414l3.293 3.293h-11.09c-4.963 0-9 4.04-9 9v48c0 4.963 4.04 9 9 9h16.09c.478 2.833 2.942 5 5.91 5 3.309 0 6-2.691 6-6s-2.691-6-6-6m0 10c-2.206 0-4-1.794-4-4s1.794-4 4-4 4 1.794 4 4-1.794 4-4 4"/><path d="M59 40.6a1 1 0 0 0-1-1H47.665l-5.03-14.92a1.002 1.002 0 0 0-.918-.68c-.425-.028-.799.236-.956.624l-9.779 24.15-5.282-8.698a1 1 0 0 0-.854-.48h-6.843a1 1 0 1 0 0 2h6.279l6.02 9.92a.999.999 0 0 0 1.781-.145l9.515-23.5 4.401 13.04a1 1 0 0 0 .947.681h11.05a1 1 0 0 0 1-1"/></svg>